# This file uses centimeters as units for non-parametric coordinates.

mtllib Road_1.mtl
g default
v 155.099976 -1.643466 -73.786405
v 155.099976 -1.643466 -163.149698
v 155.099976 1.643466 -73.786405
v 155.099976 1.643466 -163.149698
v 29.099609 1.643466 -73.786405
v 29.099609 1.643466 -163.149698
v 29.099609 -1.643466 -73.786405
v 29.099609 -1.643466 -163.149698
v -150.261768 -1.643466 158.761452
v -60.898475 -1.643466 158.761452
v -150.261768 1.643466 158.761452
v -60.898475 1.643466 158.761452
v -150.261768 1.643466 32.761096
v -60.898475 1.643466 32.761096
v -150.261768 -1.643466 32.761096
v -60.898475 -1.643466 32.761096
v 2.720257 1.643466 -162.661879
v 2.720257 -1.643466 -162.661879
v 5.194367 -1.643466 -73.371062
v 5.194367 1.643466 -73.371062
v -26.835204 1.643466 -159.291495
v -26.835204 -1.643466 -159.291495
v -13.513530 -1.643466 -71.142617
v -13.513530 1.643466 -71.142617
v -57.838898 1.643466 -150.295459
v -57.838898 -1.643466 -150.295459
v -26.869148 -1.643466 -66.977908
v -26.869148 1.643466 -66.977908
v -87.277353 1.643466 -133.962884
v -87.277353 -1.643466 -133.962884
v -36.260000 -1.643466 -61.394619
v -36.260000 1.643466 -61.394619
v -111.995128 1.643466 -110.664141
v -111.995128 -1.643466 -110.664141
v -43.589508 -1.643466 -54.146927
v -43.589508 1.643466 -54.146927
v -130.114908 1.643466 -82.608165
v -130.114908 -1.643466 -82.608165
v -49.973615 -1.643466 -44.113093
v -49.973615 1.643466 -44.113093
v -141.623373 1.643466 -52.383309
v -141.623373 -1.643466 -52.383309
v -55.271881 -1.643466 -30.399504
v -55.271881 1.643466 -30.399504
v -147.679472 1.643466 -22.075290
v -147.679472 -1.643466 -22.075290
v -58.895834 -1.643466 -12.867565
v -58.895834 1.643466 -12.867565
v -149.934793 1.643466 6.630310
v -149.934793 -1.643466 6.630310
v -60.605614 -1.643466 8.323990
v -60.605614 1.643466 8.323990
vt 0.321577 0.300316
vt 0.798892 0.767795
vt 0.242304 0.322312
vt 0.169740 0.382664
vt 0.246928 0.456099
vt 0.256745 0.240532
vt 0.331496 0.484897
vt 0.885897 0.625663
vt 0.266329 0.916395
vt 0.584918 0.301859
vt 0.359469 0.915572
vt 0.642917 0.198785
vt 0.349550 0.730991
vt 0.500785 0.111780
vt 0.261705 0.782609
vt 0.727049 0.388864
vt 0.471083 0.094106
vt 0.818006 0.306473
vt 0.342811 0.695449
vt 0.411311 0.196041
vt 0.903562 0.595570
vt 0.174707 0.149406
vt 0.333378 0.519922
vt 0.273721 0.213853
vt 0.920168 0.559903
vt 0.198917 0.118394
vt 0.334862 0.547521
vt 0.289153 0.194289
vt 0.931429 0.518718
vt 0.230474 0.089633
vt 0.335963 0.568015
vt 0.303073 0.182099
vt 0.933333 0.474233
vt 0.269225 0.067703
vt 0.336823 0.584020
vt 0.315855 0.175361
vt 0.924120 0.430263
vt 0.312574 0.055909
vt 0.337634 0.599120
vt 0.329092 0.172098
vt 0.904984 0.390450
vt 0.356734 0.054842
vt 0.338571 0.616542
vt 0.344819 0.171825
vt 0.878836 0.356598
vt 0.398775 0.062731
vt 0.339728 0.638078
vt 0.363947 0.175318
vt 0.848830 0.328838
vt 0.437145 0.076828
vt 0.341137 0.664304
vt 0.386225 0.183336
vt 0.347626 0.695190
vt 0.439079 0.212584
vt 0.754413 0.406069
vt 0.344735 0.731250
vt 0.260746 0.754861
vt 0.788756 0.288060
vt 0.257256 0.754982
vt 0.258215 0.782729
vt 0.345953 0.664046
vt 0.777137 0.422630
vt 0.259690 0.724288
vt 0.256200 0.724408
vt 0.344543 0.637820
vt 0.794411 0.438824
vt 0.258556 0.691471
vt 0.255066 0.691591
vt 0.343386 0.616283
vt 0.806222 0.454270
vt 0.257369 0.657130
vt 0.253879 0.657251
vt 0.342449 0.598861
vt 0.813132 0.468400
vt 0.256143 0.621668
vt 0.252654 0.621789
vt 0.341638 0.583761
vt 0.816246 0.481673
vt 0.254897 0.585601
vt 0.251407 0.585722
vt 0.340778 0.567757
vt 0.816060 0.496121
vt 0.253662 0.549855
vt 0.250172 0.549976
vt 0.339677 0.547262
vt 0.811535 0.514062
vt 0.252477 0.515578
vt 0.248987 0.515699
vt 0.338193 0.519663
vt 0.801131 0.536704
vt 0.251386 0.483993
vt 0.247896 0.484113
vt 0.336311 0.484638
vt 0.785093 0.563957
vt 0.250418 0.455978
vt 0.155941 0.178825
vt 0.354654 0.915831
vt 0.646624 0.201055
vt 0.581210 0.299589
vt 0.262839 0.916516
vt 0.068936 0.320957
vt 0.698088 0.706088
vt 0.066667 0.324665
vt 0.245794 0.322192
vt 0.167471 0.386371
vt 0.326392 0.300058
vn 1.000000 0.000000 0.000000
vn 1.000000 0.000000 0.000000
vn 1.000000 0.000000 0.000000
vn 1.000000 0.000000 0.000000
vn 0.000000 1.000000 0.000000
vn 0.000000 1.000000 0.000000
vn 0.000000 1.000000 0.000000
vn 0.000000 1.000000 0.000000
vn 0.000000 -1.000000 0.000000
vn 0.000000 -1.000000 0.000000
vn 0.000000 -1.000000 0.000000
vn 0.000000 -1.000000 0.000000
vn 0.000000 0.000000 -1.000000
vn 0.000000 0.000000 -1.000000
vn 0.000000 0.000000 -1.000000
vn 0.000000 0.000000 -1.000000
vn 0.000000 0.000000 1.000000
vn 0.000000 0.000000 1.000000
vn 0.000000 0.000000 1.000000
vn 0.000000 0.000000 1.000000
vn 0.000000 0.000000 1.000000
vn 0.000000 0.000000 1.000000
vn 0.000000 0.000000 1.000000
vn 0.000000 0.000000 1.000000
vn 0.000000 1.000000 0.000000
vn 0.000000 1.000000 0.000000
vn 0.000000 1.000000 0.000000
vn 0.000000 1.000000 0.000000
vn 0.000000 -1.000000 0.000000
vn 0.000000 -1.000000 0.000000
vn 0.000000 -1.000000 0.000000
vn 0.000000 -1.000000 0.000000
vn 1.000000 0.000000 0.000000
vn 1.000000 0.000000 0.000000
vn 1.000000 0.000000 0.000000
vn 1.000000 0.000000 0.000000
vn -1.000000 0.000000 0.000000
vn -1.000000 0.000000 0.000000
vn -1.000000 0.000000 0.000000
vn -1.000000 0.000000 0.000000
vn -0.998893 0.000000 -0.047039
vn -0.998893 0.000000 -0.047039
vn -0.999922 0.000000 -0.012512
vn -0.999922 0.000000 -0.012512
vn 0.000000 -1.000000 0.000000
vn 0.000000 -1.000000 0.000000
vn 0.000000 -1.000000 0.000000
vn 0.000000 -1.000000 0.000000
vn 0.999038 0.000000 0.043848
vn 0.999038 0.000000 0.043848
vn 0.999928 0.000000 0.011983
vn 0.999928 0.000000 0.011983
vn 0.000000 1.000000 0.000000
vn 0.000000 1.000000 0.000000
vn 0.000000 1.000000 0.000000
vn 0.000000 1.000000 0.000000
vn -0.018489 0.000000 -0.999829
vn -0.018489 0.000000 -0.999829
vn -0.068813 0.000000 -0.997630
vn -0.068813 0.000000 -0.997630
vn 0.000000 -1.000000 0.000000
vn 0.000000 -1.000000 0.000000
vn 0.000000 -1.000000 0.000000
vn 0.000000 -1.000000 0.000000
vn 0.017372 0.000000 0.999849
vn 0.017372 0.000000 0.999849
vn 0.061922 0.000000 0.998081
vn 0.061922 0.000000 0.998081
vn 0.000000 1.000000 0.000000
vn 0.000000 1.000000 0.000000
vn 0.000000 1.000000 0.000000
vn 0.000000 1.000000 0.000000
vn -0.200075 0.000000 -0.979781
vn -0.200075 0.000000 -0.979781
vn 0.000000 -1.000000 0.000000
vn 0.000000 -1.000000 0.000000
vn 0.195541 0.000000 0.980695
vn 0.195541 0.000000 0.980695
vn 0.000000 1.000000 0.000000
vn 0.000000 1.000000 0.000000
vn -0.386492 0.000000 -0.922293
vn -0.386492 0.000000 -0.922293
vn 0.000000 -1.000000 0.000000
vn 0.000000 -1.000000 0.000000
vn 0.393903 0.000000 0.919152
vn 0.393903 0.000000 0.919152
vn 0.000000 1.000000 0.000000
vn 0.000000 1.000000 0.000000
vn -0.590557 0.000000 -0.806996
vn -0.590557 0.000000 -0.806996
vn 0.000000 -1.000000 0.000000
vn 0.000000 -1.000000 0.000000
vn 0.608791 0.000000 0.793331
vn 0.608791 0.000000 0.793331
vn 0.000000 1.000000 0.000000
vn 0.000000 1.000000 0.000000
vn -0.767913 0.000000 -0.640555
vn -0.767913 0.000000 -0.640555
vn 0.000000 -1.000000 -0.000000
vn 0.000000 -1.000000 -0.000000
vn 0.783331 0.000000 0.621605
vn 0.783331 0.000000 0.621605
vn 0.000000 1.000000 -0.000000
vn 0.000000 1.000000 -0.000000
vn -0.891423 0.000000 -0.453173
vn -0.891423 0.000000 -0.453173
vn 0.000000 -1.000000 -0.000000
vn 0.000000 -1.000000 -0.000000
vn 0.897300 0.000000 0.441421
vn 0.897300 0.000000 0.441421
vn 0.000000 1.000000 -0.000000
vn 0.000000 1.000000 -0.000000
vn -0.960387 0.000000 -0.278671
vn -0.960387 0.000000 -0.278671
vn 0.000000 -1.000000 0.000000
vn 0.000000 -1.000000 0.000000
vn 0.961565 0.000000 0.274577
vn 0.961565 0.000000 0.274577
vn 0.000000 1.000000 -0.000000
vn 0.000000 1.000000 -0.000000
vn -0.990227 0.000000 -0.139463
vn -0.990227 0.000000 -0.139463
vn 0.000000 -1.000000 0.000000
vn 0.000000 -1.000000 0.000000
vn 0.990647 0.000000 0.136451
vn 0.990647 0.000000 0.136451
vn 0.000000 1.000000 -0.000000
vn 0.000000 1.000000 -0.000000
s off
g pCube3
usemtl initialShadingGroup
f 1/105/1 2/103/2 4/101/3 3/4/4
f 3/4/5 4/101/6 6/96/7 5/6/8
f 7/94/9 8/8/10 2/2/11 1/102/12
f 2/104/13 8/95/14 6/5/15 4/3/16
f 7/7/17 1/1/18 3/106/19 5/93/20
f 9/98/21 10/10/22 12/99/23 11/12/24
f 11/12/25 12/99/26 14/54/27 13/14/28
f 15/58/29 16/16/30 10/10/31 9/98/32
f 10/97/33 16/56/34 14/13/35 12/11/36
f 15/15/37 9/9/38 11/100/39 13/60/40
s 1
f 49/59/41 50/57/42 15/15/43 13/60/44
s 2
f 50/18/45 51/55/46 16/16/47 15/58/48
s 3
f 51/19/49 52/53/50 14/13/51 16/56/52
s 4
f 52/20/53 49/17/54 13/14/55 14/54/56
s 1
f 6/5/57 8/95/58 18/91/59 17/92/60
s 2
f 8/8/61 7/94/62 19/90/63 18/21/64
s 3
f 7/7/65 5/93/66 20/89/67 19/23/68
s 4
f 5/6/69 6/96/70 17/22/71 20/24/72
s 1
f 17/92/60 18/91/59 22/87/73 21/88/74
s 2
f 18/21/64 19/90/63 23/86/75 22/25/76
s 3
f 19/23/68 20/89/67 24/85/77 23/27/78
s 4
f 20/24/72 17/22/71 21/26/79 24/28/80
s 1
f 21/88/74 22/87/73 26/83/81 25/84/82
s 2
f 22/25/76 23/86/75 27/82/83 26/29/84
s 3
f 23/27/78 24/85/77 28/81/85 27/31/86
s 4
f 24/28/80 21/26/79 25/30/87 28/32/88
s 1
f 25/84/82 26/83/81 30/79/89 29/80/90
s 2
f 26/29/84 27/82/83 31/78/91 30/33/92
s 3
f 27/31/86 28/81/85 32/77/93 31/35/94
s 4
f 28/32/88 25/30/87 29/34/95 32/36/96
s 1
f 29/80/90 30/79/89 34/75/97 33/76/98
s 2
f 30/33/92 31/78/91 35/74/99 34/37/100
s 3
f 31/35/94 32/77/93 36/73/101 35/39/102
s 4
f 32/36/96 29/34/95 33/38/103 36/40/104
s 1
f 33/76/98 34/75/97 38/71/105 37/72/106
s 2
f 34/37/100 35/74/99 39/70/107 38/41/108
s 3
f 35/39/102 36/73/101 40/69/109 39/43/110
s 4
f 36/40/104 33/38/103 37/42/111 40/44/112
s 1
f 37/72/106 38/71/105 42/67/113 41/68/114
s 2
f 38/41/108 39/70/107 43/66/115 42/45/116
s 3
f 39/43/110 40/69/109 44/65/117 43/47/118
s 4
f 40/44/112 37/42/111 41/46/119 44/48/120
s 1
f 41/68/114 42/67/113 46/63/121 45/64/122
s 2
f 42/45/116 43/66/115 47/62/123 46/49/124
s 3
f 43/47/118 44/65/117 48/61/125 47/51/126
s 4
f 44/48/120 41/46/119 45/50/127 48/52/128
s 1
f 45/64/122 46/63/121 50/57/42 49/59/41
s 2
f 46/49/124 47/62/123 51/55/46 50/18/45
s 3
f 47/51/126 48/61/125 52/53/50 51/19/49
s 4
f 48/52/128 45/50/127 49/17/54 52/20/53
