# This file uses centimeters as units for non-parametric coordinates.

mtllib Chair.mtl
g default
v -0.969332 -0.076699 1.039858
v 0.969332 -0.076699 1.039858
v -0.969332 0.076699 1.039858
v 0.969332 0.076699 1.039858
v -0.969332 0.076699 -1.039858
v 0.969332 0.076699 -1.039858
v -0.969332 -0.076699 -1.039858
v 0.969332 -0.076699 -1.039858
v -0.759111 0.076699 0.814342
v 0.759111 0.076699 0.814342
v 0.759111 0.076699 -0.814342
v -0.759111 0.076699 -0.814342
v -0.759111 -0.076699 -0.814342
v 0.759111 -0.076699 -0.814342
v 0.759111 -0.076699 0.814342
v -0.759111 -0.076699 0.814342
v 0.969332 0.076699 0.814342
v 0.969332 -0.076699 0.814342
v -0.969332 0.076699 0.814342
v -0.969332 -0.076699 0.814342
v 0.969332 0.076699 -0.814341
v 0.969332 -0.076699 -0.814341
v -0.969332 0.076699 -0.814341
v -0.969332 -0.076699 -0.814341
v 0.759111 -0.076699 1.039858
v 0.759111 0.076699 1.039858
v 0.759111 -0.076699 -1.039858
v 0.759111 0.076699 -1.039858
v -0.759110 0.076699 1.039858
v -0.759110 -0.076699 1.039858
v -0.759110 0.076699 -1.039858
v -0.759110 -0.076699 -1.039858
v 0.759111 -1.999346 -0.814342
v 0.759111 -1.999346 -1.039858
v 0.969332 -1.999346 -1.039858
v 0.969332 -1.999346 -0.814341
v 0.969332 -1.999346 0.814342
v 0.759111 -1.999346 0.814342
v 0.969332 -1.999346 1.039858
v 0.759111 -1.999346 1.039858
v -0.969332 -1.999346 -0.814341
v -0.759111 -1.999346 -0.814342
v -0.969332 -1.999346 -1.039858
v -0.759110 -1.999346 -1.039858
v -0.759110 -1.999346 1.039858
v -0.759111 -1.999346 0.814342
v -0.969332 -1.999346 1.039858
v -0.969332 -1.999346 0.814342
v 0.759111 2.989126 -0.814342
v 0.969332 2.989126 -0.814341
v 0.969332 2.989126 -1.039858
v 0.759111 2.989126 -1.039858
v -0.759111 2.989126 -0.814342
v -0.759110 2.989126 -1.039858
v -0.969332 2.989126 -1.039858
v -0.969332 2.989126 -0.814341
v 0.759111 2.697884 -0.814342
v 0.969332 2.697884 -0.814341
v 0.969332 2.697884 -1.039858
v 0.759111 2.697884 -1.039858
v -0.759111 2.697884 -0.814342
v -0.969332 2.697884 -0.814341
v -0.969332 2.697884 -1.039858
v -0.759110 2.697884 -1.039858
v 0.759111 2.435765 -0.814342
v 0.969332 2.435765 -0.814341
v 0.969332 2.435765 -1.039858
v 0.759111 2.435765 -1.039858
v -0.759111 2.435765 -0.814342
v -0.969332 2.435765 -0.814341
v -0.969332 2.435765 -1.039858
v -0.759110 2.435765 -1.039858
v 0.456286 2.697884 -0.902473
v 0.456287 2.697884 -1.127989
v 0.456287 2.435765 -1.127989
v 0.456286 2.435765 -0.902473
v 0.206178 2.697884 -0.961227
v 0.206179 2.697884 -1.186743
v 0.206179 2.435765 -1.186743
v 0.206178 2.435765 -0.961227
v 0.000000 2.697884 -0.983259
v 0.000000 2.697884 -1.208775
v 0.000000 2.435765 -1.208775
v 0.000000 2.435765 -0.983259
v -0.206178 2.697884 -0.961225
v -0.206178 2.697884 -1.186742
v -0.206178 2.435765 -1.186742
v -0.206178 2.435765 -0.961225
v -0.456286 2.697884 -0.902472
v -0.456286 2.697884 -1.127988
v -0.456286 2.435765 -1.127988
v -0.456286 2.435765 -0.902472
vn 0.000000 0.000000 1.000000
vn 0.000000 0.000000 1.000000
vn 0.000000 0.000000 1.000000
vn 0.000000 0.000000 1.000000
vn 0.000000 1.000000 0.000000
vn 0.000000 1.000000 0.000000
vn 0.000000 1.000000 0.000000
vn 0.000000 1.000000 0.000000
vn 0.000000 0.000000 -1.000000
vn 0.000000 0.000000 -1.000000
vn 0.000000 0.000000 -1.000000
vn 0.000000 0.000000 -1.000000
vn 0.000000 -1.000000 0.000000
vn 0.000000 -1.000000 0.000000
vn 0.000000 -1.000000 0.000000
vn 0.000000 -1.000000 0.000000
vn 1.000000 0.000000 0.000000
vn 1.000000 0.000000 0.000000
vn 1.000000 0.000000 0.000000
vn 1.000000 0.000000 0.000000
vn -1.000000 0.000000 0.000000
vn -1.000000 0.000000 0.000000
vn -1.000000 0.000000 0.000000
vn -1.000000 0.000000 0.000000
vn 0.000000 1.000000 -0.000000
vn 0.000000 1.000000 -0.000001
vn -0.000000 1.000000 -0.000001
vn -0.000000 1.000000 -0.000000
vn 0.000000 1.000000 -0.000000
vn 0.000000 1.000000 -0.000000
vn 0.000000 1.000000 -0.000000
vn 0.000000 1.000000 -0.000000
vn 0.000001 1.000000 -0.000000
vn 0.000000 1.000000 -0.000000
vn -0.000000 -1.000000 0.000001
vn -0.000000 -1.000000 0.000001
vn -0.000000 -1.000000 0.000001
vn -0.000000 -1.000000 0.000001
vn 0.000000 -1.000000 -0.000001
vn 0.000000 -1.000000 -0.000001
vn 0.000000 -1.000000 -0.000001
vn 0.000000 -1.000000 -0.000001
vn 1.000000 0.000000 0.000000
vn 1.000000 0.000000 0.000000
vn 1.000000 0.000000 0.000000
vn 1.000000 0.000000 0.000000
vn -0.000000 -1.000000 -0.000000
vn -0.000000 -1.000000 -0.000000
vn -0.000000 -1.000000 -0.000000
vn -0.000000 -1.000000 -0.000000
vn 0.000001 1.000000 0.000000
vn 0.000001 1.000000 0.000000
vn -1.000000 0.000000 0.000000
vn -1.000000 0.000000 0.000000
vn 0.000001 -1.000000 0.000000
vn 0.000001 -1.000000 0.000000
vn 0.000001 -1.000000 0.000000
vn 0.000001 -1.000000 0.000000
vn -0.000001 1.000000 -0.000000
vn -0.000001 1.000000 0.000000
vn -0.000001 1.000000 0.000000
vn -1.000000 0.000000 0.000000
vn -1.000000 0.000000 0.000000
vn -0.000001 -1.000000 0.000000
vn -0.000001 -1.000000 0.000000
vn -0.000001 -1.000000 0.000000
vn -0.000001 -1.000000 0.000000
vn 0.000000 -1.000000 0.000000
vn 0.000000 -1.000000 0.000000
vn 0.000000 -1.000000 0.000000
vn 0.000000 -1.000000 0.000000
vn 0.000000 0.000000 1.000000
vn 0.000000 0.000000 1.000000
vn -0.000000 1.000000 -0.000000
vn 0.000000 0.000000 -1.000000
vn 0.000000 0.000000 -1.000000
vn 0.000000 0.000000 -1.000000
vn 0.000000 0.000000 -1.000000
vn 0.000000 1.000000 -0.000001
vn 0.000000 1.000000 -0.000001
vn 0.000000 1.000000 -0.000001
vn 0.000000 1.000000 -0.000001
vn 0.000000 0.000000 1.000000
vn 0.000000 0.000000 1.000000
vn 0.000000 1.000000 0.000001
vn 0.000000 1.000000 0.000001
vn 0.000000 1.000000 0.000001
vn 0.000000 1.000000 0.000001
vn 0.000000 -1.000000 0.000000
vn 0.000000 -1.000000 0.000000
vn 0.000000 -1.000000 0.000000
vn 0.000000 -1.000000 0.000000
vn 0.000000 -1.000000 0.000001
vn 0.000000 -1.000000 0.000001
vn 0.000000 -1.000000 0.000001
vn 0.000000 -1.000000 0.000001
vn -1.000000 0.000000 -0.000001
vn -1.000000 0.000000 -0.000001
vn -1.000000 0.000000 -0.000001
vn -1.000000 0.000000 -0.000001
vn 0.000000 0.000000 -1.000000
vn 0.000000 0.000000 -1.000000
vn 0.000000 0.000000 -1.000000
vn 0.000000 0.000000 -1.000000
vn 1.000000 0.000000 0.000000
vn 1.000000 0.000000 0.000000
vn 1.000000 0.000000 0.000000
vn 1.000000 0.000000 0.000000
vn -0.000004 0.000000 1.000000
vn -0.000004 0.000000 1.000000
vn -0.000004 0.000000 1.000000
vn -0.000004 0.000000 1.000000
vn 0.000001 0.000000 -1.000000
vn 0.000001 0.000000 -1.000000
vn 0.000001 0.000000 -1.000000
vn 0.000001 0.000000 -1.000000
vn 1.000000 0.000000 0.000000
vn 1.000000 0.000000 0.000000
vn 1.000000 0.000000 0.000000
vn 1.000000 0.000000 0.000000
vn 0.000000 0.000000 1.000000
vn 0.000000 0.000000 1.000000
vn 0.000000 0.000000 1.000000
vn 0.000000 0.000000 1.000000
vn -1.000000 0.000000 0.000001
vn -1.000000 0.000000 0.000001
vn -1.000000 0.000000 0.000001
vn -1.000000 0.000000 0.000001
vn 0.000004 0.000000 1.000000
vn 0.000004 0.000000 1.000000
vn 0.000004 0.000000 1.000000
vn 0.000004 0.000000 1.000000
vn -1.000000 0.000000 0.000000
vn -1.000000 0.000000 0.000000
vn -1.000000 0.000000 0.000000
vn -1.000000 0.000000 0.000000
vn 0.000000 0.000000 -1.000000
vn 0.000000 0.000000 -1.000000
vn 0.000000 0.000000 -1.000000
vn 0.000000 0.000000 -1.000000
vn 1.000000 0.000000 0.000003
vn 1.000000 0.000000 0.000003
vn 1.000000 0.000000 0.000003
vn 1.000000 0.000000 0.000003
vn 1.000000 0.000000 -0.000003
vn 1.000000 0.000000 -0.000003
vn 1.000000 0.000000 -0.000003
vn 1.000000 0.000000 -0.000003
vn 0.000000 0.000000 1.000000
vn 0.000000 0.000000 1.000000
vn 0.000000 0.000000 1.000000
vn 0.000000 0.000000 1.000000
vn -1.000000 0.000000 0.000000
vn -1.000000 0.000000 0.000000
vn -1.000000 0.000000 0.000000
vn -1.000000 0.000000 0.000000
vn -0.000001 0.000000 -1.000000
vn -0.000001 0.000000 -1.000000
vn -0.000001 0.000000 -1.000000
vn -0.000001 0.000000 -1.000000
vn -0.000004 -0.000000 1.000000
vn -0.000004 -0.000000 1.000000
vn -0.000004 -0.000000 1.000000
vn -0.000004 -0.000000 1.000000
vn 1.000000 0.000000 0.000000
vn 1.000000 0.000000 0.000000
vn 1.000000 0.000000 0.000000
vn 1.000000 0.000000 0.000000
vn 0.000000 0.000000 -1.000000
vn 0.000000 0.000000 -1.000000
vn 0.000000 0.000000 -1.000000
vn 0.000000 0.000000 -1.000000
vn -1.000000 0.000000 -0.000001
vn -1.000000 0.000000 -0.000001
vn -1.000000 0.000000 -0.000001
vn -1.000000 0.000000 -0.000001
vn 1.000000 0.000000 0.000003
vn 1.000000 0.000000 0.000003
vn 1.000000 0.000000 0.000003
vn 1.000000 0.000000 0.000003
vn 0.000000 -0.000000 -1.000000
vn 0.000000 -0.000000 -1.000000
vn 0.000000 -0.000000 -1.000000
vn 0.000000 -0.000000 -1.000000
vn -1.000000 -0.000000 0.000000
vn -1.000000 -0.000000 0.000000
vn -1.000000 -0.000000 0.000000
vn -1.000000 -0.000000 0.000000
vn 0.000004 0.000000 1.000000
vn 0.000004 0.000000 1.000000
vn 0.000004 0.000000 1.000000
vn 0.000004 0.000000 1.000000
vn -0.000004 0.000000 1.000000
vn -0.000004 0.000000 1.000000
vn 1.000000 -0.000000 0.000000
vn 1.000000 -0.000000 0.000000
vn 0.000000 -0.000000 -1.000000
vn 0.000000 -0.000000 -1.000000
vn 0.000004 -0.000000 1.000000
vn 0.000004 -0.000000 1.000000
vn 0.000004 -0.000000 1.000000
vn 0.000004 -0.000000 1.000000
vn -1.000000 0.000000 0.000000
vn -1.000000 0.000000 0.000000
vn -1.000000 0.000000 0.000000
vn -1.000000 0.000000 0.000000
vn 0.000000 0.000000 -1.000000
vn 0.000000 0.000000 -1.000000
vn 0.000000 0.000000 -1.000000
vn 0.000000 0.000000 -1.000000
vn 1.000000 0.000000 0.000003
vn 1.000000 0.000000 0.000003
vn 1.000000 0.000000 0.000003
vn 1.000000 0.000000 0.000003
vn -0.000004 0.000000 1.000000
vn -0.000004 0.000000 1.000000
vn 1.000000 -0.000000 0.000000
vn 1.000000 -0.000000 0.000000
vn 0.000000 -0.000000 -1.000000
vn 0.000000 -0.000000 -1.000000
vn -1.000000 -0.000000 -0.000001
vn -1.000000 -0.000000 -0.000001
vn -1.000000 -0.000000 -0.000001
vn -1.000000 -0.000000 -0.000001
vn 0.000000 1.000000 0.000000
vn 0.000000 1.000000 0.000000
vn 0.000000 1.000000 0.000000
vn 0.000000 1.000000 0.000000
vn -0.256741 0.000000 -0.966480
vn -0.256741 0.000000 -0.966480
vn -0.279434 0.000000 -0.960165
vn -0.279434 0.000000 -0.960165
vn 0.000000 -1.000000 -0.000000
vn 0.000000 -1.000000 -0.000000
vn 0.000000 -1.000000 0.000000
vn 0.000000 -1.000000 0.000000
vn 0.256740 0.000000 0.966480
vn 0.256740 0.000000 0.966480
vn 0.279433 0.000000 0.960165
vn 0.279433 0.000000 0.960165
vn 0.000000 1.000000 0.000000
vn 0.000000 1.000000 0.000000
vn 0.000000 1.000000 0.000001
vn 0.000000 1.000000 0.000001
vn 0.279438 0.000000 -0.960164
vn 0.279438 0.000000 -0.960164
vn 0.256743 0.000000 -0.966480
vn 0.256743 0.000000 -0.966480
vn 0.000000 -1.000000 0.000000
vn 0.000000 -1.000000 0.000000
vn 0.000000 -1.000000 -0.000001
vn 0.000000 -1.000000 -0.000001
vn -0.279437 0.000000 0.960164
vn -0.279437 0.000000 0.960164
vn -0.256742 0.000000 0.966480
vn -0.256742 0.000000 0.966480
vn 0.000000 1.000000 0.000000
vn 0.000000 1.000000 0.000000
vn 0.174339 0.000000 -0.984686
vn 0.174339 0.000000 -0.984686
vn 0.000000 -1.000000 -0.000001
vn 0.000000 -1.000000 -0.000001
vn -0.174339 0.000000 0.984686
vn -0.174339 0.000000 0.984686
vn 0.000000 1.000000 -0.000000
vn 0.000000 1.000000 0.000000
vn -0.000003 0.000000 -1.000000
vn -0.000003 0.000000 -1.000000
vn 0.000000 -1.000000 0.000000
vn 0.000000 -1.000000 0.000000
vn 0.000003 0.000000 1.000000
vn 0.000003 0.000000 1.000000
vn 0.000000 1.000000 0.000000
vn 0.000000 1.000000 0.000000
vn -0.174342 0.000000 -0.984685
vn -0.174342 0.000000 -0.984685
vn 0.000000 -1.000000 -0.000000
vn 0.000000 -1.000000 -0.000000
vn 0.174342 0.000000 0.984685
vn 0.174342 0.000000 0.984685
s 1
g pCube1
usemtl initialShadingGroup
f 29//1 30//2 25//3 26//4
s off
f 9//5 10//6 11//7 12//8
s 2
f 27//9 28//10 6//11 8//12
s off
f 13//13 14//14 15//15 16//16
s 3
f 21//17 22//18 8//19 6//20
s 4
f 19//21 20//22 1//23 3//24
s 5
f 9//25 29//26 26//27 10//28
s off
f 49//29 50//30 51//31 52//32
s 5
f 9//25 19//33 3//34 29//26
s off
f 33//35 34//36 35//37 36//38
f 15//39 25//40 30//41 16//42
s 3
f 2//43 18//44 17//45 4//46
s off
f 38//47 37//48 39//49 40//50
s 5
f 12//51 23//52 19//33 9//25
s 4
f 23//53 24//54 20//22 19//21
s off
f 16//55 20//56 24//57 13//58
s 5
f 10//28 17//59 21//60 11//61
s 3
f 17//45 18//44 22//18 21//17
s 4
f 7//62 24//54 23//53 5//63
s off
f 14//64 22//65 18//66 15//67
f 42//68 41//69 43//70 44//71
s 1
f 26//4 25//3 2//72 4//73
s 5
f 10//28 26//27 4//74 17//59
s 2
f 5//75 31//76 32//77 7//78
s off
f 53//79 54//80 55//81 56//82
s 1
f 1//83 30//2 29//1 3//84
s off
f 11//85 28//86 31//87 12//88
s 2
f 32//77 31//76 28//10 27//9
s off
f 46//89 45//90 47//91 48//92
f 13//93 32//94 27//95 14//96
f 14//97 27//98 34//99 33//100
f 27//101 8//102 35//103 34//104
f 8//105 22//106 36//107 35//108
f 22//109 14//110 33//111 36//112
f 15//113 18//114 37//115 38//116
f 18//117 2//118 39//119 37//120
f 2//121 25//122 40//123 39//124
f 25//125 15//126 38//127 40//128
f 13//129 24//130 41//131 42//132
f 24//133 7//134 43//135 41//136
f 7//137 32//138 44//139 43//140
f 32//141 13//142 42//143 44//144
f 16//145 30//146 45//147 46//148
f 30//149 1//150 47//151 45//152
f 1//153 20//154 48//155 47//156
f 20//157 16//158 46//159 48//160
s 6
f 57//161 58//162 50//163 49//164
s 7
f 58//165 59//166 51//167 50//168
s 8
f 59//169 60//170 52//171 51//172
s off
f 60//173 57//174 49//175 52//176
f 12//177 31//178 72//179 69//180
s 9
f 31//181 5//182 71//183 72//184
s 10
f 5//185 23//186 70//187 71//188
s 11
f 23//189 12//190 69//191 70//192
s 6
f 65//193 66//194 58//162 57//161
s 7
f 66//195 67//196 59//166 58//165
s 8
f 67//197 68//198 60//170 59//169
s 11
f 62//199 61//200 53//201 56//202
s 10
f 63//203 62//204 56//205 55//206
s 9
f 64//207 63//208 55//209 54//210
s off
f 61//211 64//212 54//213 53//214
s 6
f 11//215 21//216 66//194 65//193
s 7
f 21//217 6//218 67//196 66//195
s 8
f 6//219 28//220 68//198 67//197
s off
f 28//221 11//222 65//223 68//224
s 11
f 70//192 69//191 61//200 62//199
s 10
f 71//188 70//187 62//204 63//203
s 9
f 72//184 71//183 63//208 64//207
s 12
f 89//225 90//226 64//227 61//228
s 13
f 90//229 91//230 72//231 64//232
s 14
f 91//233 92//234 69//235 72//236
s 15
f 92//237 89//238 61//239 69//240
s 12
f 57//241 60//242 74//243 73//244
s 13
f 60//245 68//246 75//247 74//248
s 14
f 68//249 65//250 76//251 75//252
s 15
f 65//253 57//254 73//255 76//256
s 12
f 73//244 74//243 78//257 77//258
s 13
f 74//248 75//247 79//259 78//260
s 14
f 75//252 76//251 80//261 79//262
s 15
f 76//256 73//255 77//263 80//264
s 12
f 77//258 78//257 82//265 81//266
s 13
f 78//260 79//259 83//267 82//268
s 14
f 79//262 80//261 84//269 83//270
s 15
f 80//264 77//263 81//271 84//272
s 12
f 81//266 82//265 86//273 85//274
s 13
f 82//268 83//267 87//275 86//276
s 14
f 83//270 84//269 88//277 87//278
s 15
f 84//272 81//271 85//279 88//280
s 12
f 85//274 86//273 90//226 89//225
s 13
f 86//276 87//275 91//230 90//229
s 14
f 87//278 88//277 92//234 91//233
s 15
f 88//280 85//279 89//238 92//237
